<svg xmlns="http://www.w3.org/2000/svg" viewBox="0 0 66 66"><style>.st0{display:none;} .st1{display:inline;fill:#F16529;} .st2{display:inline;fill:#E44D26;} .st3{display:inline;fill:none;stroke:#FFFFFF;stroke-miterlimit:10;} .st4{display:inline;} .st5{fill:#FFFFFF;} .st6{display:inline;fill:#FF7748;} .st7{fill:none;stroke:#FFFFFF;stroke-miterlimit:10;} .st8{display:inline;fill:#FFFFFF;} .st9{fill:none;stroke:#FFFFFF;stroke-width:0.5;stroke-miterlimit:10;} .st10{fill:#225470;} .st11{fill:#214A63;} .st12{fill:#9771FF;} .st13{fill:#582D96;} .st14{fill:none;stroke:#9771FF;stroke-miterlimit:10;} .st15{fill:#F65A5B;} .st16{fill:#963435;} .st17{fill:none;stroke:#F65A5B;stroke-miterlimit:10;} .st18{fill:none;stroke:#CCCDCE;stroke-miterlimit:10;} .st19{fill:none;stroke:#E52366;stroke-miterlimit:10;} .st20{fill:none;stroke:#FFC200;stroke-miterlimit:10;} .st21{fill:none;stroke:#4386FC;stroke-miterlimit:10;} .st22{fill:#117BFF;} .st23{fill:none;stroke:#117BFF;stroke-miterlimit:10;} .st24{fill:#FFA800;} .st25{fill:#EE445F;} .st26{fill:none;stroke:#FFA800;stroke-miterlimit:10;} .st27{fill:none;stroke:#EE445F;stroke-miterlimit:10;} .st28{fill:#00FFBC;} .st29{fill:none;stroke:#00FFBC;stroke-miterlimit:10;} .st30{fill:#FF003D;} .st31{opacity:0.5;fill:#00F0BE;} .st32{opacity:0.25;fill:#00F0BE;} .st33{opacity:0.75;fill:#00F0BE;} .st34{fill:#00F0BE;} .st35{fill:none;stroke:#00F0BE;stroke-miterlimit:10;} .st36{fill:none;stroke:#0393FF;stroke-miterlimit:10;} .st37{fill:none;stroke:#FF003D;stroke-miterlimit:10;} .st38{fill:#C7B299;} .st39{fill:none;stroke:#C7B299;stroke-miterlimit:10;} .st40{fill:#CCCDCE;} .st41{fill:none;stroke:#D8192F;stroke-miterlimit:10;} .st42{fill:#D8192F;} .st43{fill:#39B54A;} .st44{fill:none;stroke:#FCEE21;stroke-miterlimit:10;} .st45{fill:#E52366;} .st46{fill:#FFC200;} .st47{fill:#4386FC;} .st48{fill:#1A77FF;} .st49{fill:none;stroke:#F01251;stroke-miterlimit:10;} .st50{fill:#FEC49E;} .st51{fill:#1A1A1A;} .st52{fill:none;stroke:#39D1B4;stroke-miterlimit:10;} .st53{fill:#39D1B4;} .st54{fill:#F16529;} .st55{fill:#E44D26;} .st56{fill:#FFAD1D;} .st57{fill:#D37D16;} .st58{fill:#D4D5D6;} .st59{fill:#BEBFC1;} .st60{fill:#D3DDE2;} .st61{fill:#A7BBC6;} .st62{fill:#57FF93;} .st63{fill:#39D86E;} .st64{fill:#C2EC0F;} .st65{fill:#97B41D;}</style><g id="VF"><path class="st58" d="M4 15.8L32 .2c.6-.3 1.3-.3 1.9 0l28 15.5c.6.4 1 1 1 1.8v30.9c0 .7-.4 1.4-1 1.8L34 65.8c-.6.3-1.3.3-1.9 0L4 50.2c-.6-.4-1-1-1-1.8V17.6c0-.8.4-1.5 1-1.8z"/><path class="st59" d="M60 47.4v-10L46.6 24l-.1-.1c-1.8-1.7-4.2-2.7-6.8-2.7-.8 0-1.5.1-2.3.3L31 15.1c-2.1-2.1-5.2-2.7-8.6-2-.7 3.2-.2 6.2 1.7 8.3-4.3.9-7.5 4.6-7.8 9.1v.7c0 1 .1 1.9.4 2.8.6 3.4 2.2 8.8 6.5 13.9.5.8 1.1 1.5 1.9 2.1l10.8 10.8L60 47.4z"/><path class="st15" d="M49.7 30.5c-.3-5.2-4.7-9.4-10-9.4-2.6 0-4.9 1-6.7 2.6v-.1c.7-3.3.1-6.5-2-8.6-2.1-2.1-5.2-2.7-8.6-2-.7 3.2-.2 6.2 1.7 8.3-4.3.9-7.5 4.6-7.8 9.1v.6c0 1 .1 1.9.4 2.8.6 3.4 2.2 8.8 6.5 13.9.5.8 1.1 1.5 1.9 2.1 1.1.8 2.4 1.2 3.8 1.2 1.5 0 2.9-.5 4-1.3 1.1.8 2.5 1.3 4 1.3 1.4 0 3.9-1.2 3.9-1.2l.1-.1c.7-.5 1.3-1.2 1.8-1.9 4.5-5.3 6.1-10.9 6.7-14.3.2-.7.3-3 .3-3z"/><path class="st7" d="M6 47.9l27 15 27-15V18.1l-27-15-27 15z"/><path class="st62" d="M24.2 22.1c2.3 2.3 5.7 2.9 9.2 2.1.8-3.6.1-7-2.1-9.2-2.3-2.3-5.7-2.9-9.2-2.1-.8 3.5-.2 6.9 2.1 9.2z"/><path class="st63" d="M31.3 15c-2.3-2.3-5.7-2.9-9.2-2.1l11.4 11.4c.7-3.7.1-7.1-2.2-9.3z"/></g></svg>